<?xml version="1.0" encoding="utf-8"?>
<!-- Generator: Adobe Illustrator 25.2.1, SVG Export Plug-In . SVG Version: 6.00 Build 0)  -->
<svg version="1.1" xmlns="http://www.w3.org/2000/svg" xmlns:xlink="http://www.w3.org/1999/xlink" x="0px" y="0px"
	 viewBox="0 0 3441 3441" style="enable-background:new 0 0 3441 3441;" xml:space="preserve">
<style type="text/css">
	.st0{fill:#24FF2B;stroke:#24FF2B;stroke-width:9.713215e-02;stroke-miterlimit:10;}
</style>
<g id="Layer_1">
	<g transform="translate(0.000000,3441.000000) scale(0.100000,-0.100000)">
		<path class="st0" d="M2550,8879.1V3779.7l4259.2-1.9c2342.8-1.9,5082-2.9,6087.3-2.9h1829l-2.9,3108.2
			c-1,1709.5-4.9,4005.7-8.7,5102.4l-5.8,1993.2h-1022.8h-1023.8V9733.9V5489.2h-1525h-1525v4244.7v4244.7H8586.8H7562V9733.9
			V5489.2H6085.6H4609.2v4244.7v4244.7H3579.6H2550V8879.1z"/>
		<path class="st0" d="M19062.5,11050V9724.2h-1335.6h-1335.6v-913v-913h1335.6h1335.6V6572.2V5246.4h888.8h888.8v1325.9v1325.9
			h1340.4h1340.4v913v913h-1340.4H20840V11050v1325.9h-888.8h-888.8V11050z"/>
		<path class="st0" d="M27386.7,11050V9724.2h-1335.6h-1335.6v-913v-913h1335.6h1335.6V6572.2V5246.4h888.8h888.8v1325.9v1325.9
			h1340.4h1340.4v913v913h-1340.4h-1340.4V11050v1325.9h-888.8h-888.8V11050z"/>
	</g>
</g>
<g id="svg8">
	<g id="layer1_1_" transform="translate(-66.970994,-261.91674)">
		<path id="path80319_1_" class="st0" d="M2501.8,1001.1l242.9-420.7c13.7-23.6,5.5-53.6-17.9-67.3c-23.2-13.7-53.6-5.7-66.9,17.9
			l-246.1,426.1c-187.8-85.8-399.1-133.6-626.4-133.6c-227.2,0-438.6,47.8-626.4,133.6L915,530.9c-13.7-23.6-43.7-31.6-67.3-17.9
			c-23.6,13.7-31.6,43.7-17.9,67.3l242.9,420.7C654,1228.1,370.3,1652,323.5,2148.2h2928C3204.6,1652,2920.9,1228.1,2501.8,1001.1z
			 M1115.3,1737.1c-67.9,0-122.7-55.2-122.7-122.7c0-67.9,55.2-122.7,122.7-122.7c67.9,0,122.7,55.2,122.7,122.7
			C1238.3,1681.9,1183.1,1737.1,1115.3,1737.1z M2459.4,1737.1c-67.9,0-122.7-55.2-122.7-122.7c0-67.9,55.2-122.7,122.7-122.7
			c67.9,0,122.7,55.2,122.7,122.7C2582.4,1681.9,2527.3,1737.1,2459.4,1737.1z"/>
	</g>
</g>
</svg>
